<?xml version="1.0" standalone="no"?>
<!DOCTYPE svg PUBLIC "-//W3C//DTD SVG 20010904//EN"
 "http://www.w3.org/TR/2001/REC-SVG-20010904/DTD/svg10.dtd">
<svg version="1.0" xmlns="http://www.w3.org/2000/svg"
 width="1024.000000pt" height="1024.000000pt" viewBox="0 0 1024.000000 1024.000000"
 preserveAspectRatio="xMidYMid meet">

<g transform="translate(0.000000,1024.000000) scale(0.100000,-0.100000)"
fill="#000000" stroke="none">
<path d="M0 5120 l0 -5120 5120 0 5120 0 0 5120 0 5120 -5120 0 -5120 0 0
-5120z m7055 3181 c88 -133 145 -284 191 -501 24 -110 27 -149 28 -320 0 -212
-9 -290 -55 -469 -85 -333 -267 -680 -539 -1033 -95 -124 -389 -428 -530 -550
-134 -115 -445 -348 -465 -348 -4 0 -4 7 -1 15 15 40 76 561 76 657 0 23 12
33 105 83 86 46 122 73 198 148 50 51 146 144 212 207 305 292 498 546 650
855 219 444 251 823 105 1243 -16 45 -27 82 -25 82 2 0 24 -31 50 -69z m286
-273 c115 -173 209 -397 262 -623 36 -152 47 -250 54 -465 8 -284 -28 -533
-122 -845 -262 -862 -894 -1659 -1706 -2148 -143 -86 -514 -265 -526 -253 -2
1 23 83 56 182 76 229 125 391 163 529 16 61 34 112 39 114 23 7 292 192 390
266 550 416 996 945 1253 1487 278 585 331 1112 161 1608 -25 72 -59 158 -76
192 -41 82 -22 65 52 -44z m-466 -130 c-68 -444 -440 -935 -1032 -1361 -200
-145 -467 -298 -850 -488 -374 -185 -470 -244 -561 -343 -125 -136 -164 -284
-96 -366 41 -48 117 -65 223 -51 121 17 223 44 380 103 138 51 443 193 532
248 27 16 51 30 54 30 13 0 -10 -266 -24 -287 -19 -29 -367 -207 -626 -320
-197 -86 -299 -139 -356 -185 -67 -54 -126 -141 -156 -231 -27 -82 -27 -82
-30 -432 -1 -192 -6 -410 -9 -482 l-6 -133 -31 0 c-16 0 -70 8 -119 17 l-88
17 -36 70 c-20 39 -40 76 -44 81 -16 21 -125 266 -176 397 -79 202 -138 404
-191 657 l-48 226 1 235 c1 220 2 241 27 332 44 165 130 326 227 426 146 150
314 235 660 332 466 131 644 197 980 365 545 272 967 602 1252 982 59 78 114
156 123 173 21 41 28 38 20 -12z m-2622 -320 c283 -87 440 -399 342 -681 -48
-139 -137 -237 -297 -325 -147 -81 -189 -95 -288 -96 -77 -1 -91 2 -155 33
-186 91 -299 296 -300 546 0 135 23 210 95 313 140 199 373 280 603 210z
m1671 -244 c-104 -122 -283 -247 -524 -368 -234 -117 -610 -264 -596 -233 3 7
22 53 42 103 l37 91 76 33 c42 18 225 99 406 178 382 168 598 260 604 256 2
-2 -18 -29 -45 -60z m-2440 -1361 c-44 -78 -98 -225 -110 -299 -5 -33 -23 -58
-103 -145 -155 -167 -280 -342 -382 -532 -27 -51 -47 -78 -43 -62 67 307 162
513 355 770 70 94 303 345 319 345 5 0 -12 -35 -36 -77z m-94 -1239 c0 -8 -5
-14 -11 -14 -5 0 -7 5 -4 10 3 6 1 10 -5 10 -7 0 -10 -7 -6 -15 3 -8 1 -15 -5
-15 -6 0 -8 -8 -4 -19 3 -11 -1 -24 -12 -32 -16 -13 -17 -12 -4 4 12 15 11 17
-2 17 -18 0 -16 -34 1 -36 7 -1 16 -2 21 -3 5 0 12 -13 16 -28 10 -43 26 -5
18 43 l-7 39 -7 -30 c-6 -29 -7 -29 -8 8 -1 38 9 47 27 25 12 -16 31 -128 25
-145 -3 -7 -1 -13 4 -13 9 0 39 -128 32 -134 -16 -13 -144 -54 -152 -49 -6 3
-7 2 -4 -3 3 -6 -37 -24 -89 -41 -52 -17 -94 -29 -94 -27 0 2 14 33 30 67 17
35 30 69 30 76 0 7 5 9 12 5 7 -4 8 -3 4 4 -8 13 40 113 60 125 8 5 12 12 9
18 -4 5 -1 9 5 9 6 0 8 5 5 10 -3 6 1 10 9 10 18 0 22 -16 5 -22 -5 -2 -11
-10 -12 -18 -2 -8 -6 -21 -11 -28 -4 -7 -5 -19 -2 -27 3 -8 1 -15 -5 -15 -6 0
-7 -4 -4 -10 3 -5 1 -10 -6 -10 -8 0 -10 11 -5 33 6 32 5 32 -8 7 -9 -16 -11
-29 -5 -36 5 -7 7 -30 3 -53 -5 -34 -4 -41 9 -41 11 0 14 5 10 15 -3 9 2 24
11 34 11 13 15 29 11 57 -3 27 -2 34 5 24 8 -13 13 -12 32 8 19 19 21 24 8 32
-12 8 -12 10 3 16 9 3 17 12 17 20 0 18 -36 54 -46 46 -11 -11 7 18 44 71 32
45 52 53 52 21z m284 -911 c90 -222 95 -236 89 -247 -9 -13 -470 1 -593 19
-188 27 -389 76 -535 132 -94 35 -359 163 -352 169 2 2 57 0 123 -6 344 -28
782 3 1091 79 43 11 85 20 93 20 11 1 36 -51 84 -166z m3152 -532 c77 -36 162
-120 200 -197 27 -54 29 -68 29 -169 0 -99 -3 -115 -27 -165 -37 -74 -77 -121
-140 -162 -69 -45 -133 -66 -227 -74 -285 -23 -505 198 -462 464 22 136 98
237 228 299 122 59 278 61 399 4z m-4066 -66 l0 -95 -140 0 -140 0 0 -295 0
-295 -22 -5 c-13 -3 -56 -4 -95 -3 l-73 3 0 298 0 297 -150 0 -150 0 0 95 0
95 385 0 385 0 0 -95z m834 60 c4 -20 6 -60 5 -90 l-2 -55 -263 0 c-230 0
-263 -2 -268 -16 -8 -20 -8 -62 0 -91 l6 -23 232 0 231 0 3 -80 4 -80 -235 0
-235 0 -6 -24 c-3 -13 -3 -45 1 -71 l6 -48 259 7 258 8 0 -91 0 -91 -355 0
c-195 0 -358 0 -362 0 -11 0 -16 341 -8 578 l7 202 358 0 358 0 6 -35z m336
-271 l0 -307 215 5 215 5 0 -91 0 -91 -312 3 -313 3 3 389 2 390 95 0 95 0 0
-306z m1255 264 c3 -24 5 -64 3 -90 l-3 -48 -257 0 -258 0 0 -65 0 -65 230 0
230 0 0 -80 0 -80 -230 0 -231 0 3 -67 3 -68 253 -3 252 -2 0 -84 c0 -79 -1
-84 -22 -87 -13 -2 -173 -3 -355 -1 l-333 3 0 390 0 389 354 0 355 0 6 -42z
m773 13 c93 -42 139 -117 130 -213 -6 -60 -31 -96 -86 -124 -42 -22 -45 -34
-9 -34 11 0 36 -17 57 -38 96 -96 66 -252 -59 -311 l-56 -26 -317 -3 -318 -3
0 284 c0 156 3 332 7 391 l6 107 296 -3 c287 -3 298 -4 349 -27z m1922 -66 l0
-95 -145 0 -145 0 -2 -297 -3 -298 -92 0 -93 0 0 298 0 297 -150 0 -150 0 0
95 0 95 390 0 390 0 0 -95z m-4693 -905 c43 0 43 0 43 -35 l0 -35 -90 0 -90 0
0 -35 0 -35 81 0 80 0 -3 -32 -3 -33 -77 -3 -78 -3 0 -29 0 -30 90 0 90 0 0
-40 0 -40 -135 0 -135 0 0 181 0 182 92 -7 c50 -3 111 -6 135 -6z m305 -40
c18 -27 36 -50 39 -50 3 0 18 23 33 50 27 50 28 50 77 50 57 0 58 5 -12 -103
-21 -33 -39 -65 -39 -70 0 -6 23 -45 50 -88 28 -43 50 -83 50 -88 0 -6 -20
-11 -45 -11 -43 0 -46 2 -81 55 -20 30 -38 55 -39 55 -1 0 -19 -25 -39 -55
-36 -55 -36 -55 -87 -55 l-51 0 17 28 c10 15 38 53 62 84 23 31 43 62 43 68 0
6 -22 43 -48 83 -27 40 -52 78 -56 85 -5 9 6 12 43 12 50 0 51 -1 83 -50z
m590 23 c53 -26 73 -104 44 -162 -23 -44 -62 -63 -138 -69 l-68 -5 0 -48 0
-49 -45 0 -45 0 0 180 0 180 113 -7 c63 -3 124 -12 139 -20z m415 15 c6 -7 26
-53 46 -103 20 -49 47 -117 61 -150 37 -86 35 -95 -18 -95 -40 0 -44 2 -52 33
l-10 32 -82 3 -81 3 -15 -36 c-15 -34 -17 -36 -61 -33 -25 2 -45 4 -45 5 0 1
32 74 70 162 39 87 70 164 70 169 0 14 19 20 66 21 23 1 46 -5 51 -11z m331 6
c22 -6 22 -8 22 -181 l0 -174 -42 3 -43 3 3 170 c1 94 2 173 2 178 0 8 26 9
58 1z m335 -89 c43 -52 81 -95 85 -95 4 0 7 42 7 92 l0 93 43 1 42 1 0 -178 0
-179 -35 0 c-30 0 -40 8 -92 72 -32 39 -68 83 -80 97 l-22 26 -1 -51 c0 -28
-3 -72 -6 -98 -7 -46 -7 -46 -45 -46 l-39 0 0 180 0 180 33 0 c29 0 41 -10
110 -95z m567 77 c43 -24 45 -30 16 -66 -23 -27 -25 -28 -47 -12 -13 9 -41 16
-62 16 -34 0 -38 -3 -35 -22 2 -17 17 -26 72 -44 81 -26 105 -51 106 -110 0
-31 -6 -46 -28 -67 -49 -47 -161 -48 -236 -3 l-39 23 37 28 c36 28 38 28 66
12 43 -26 120 -21 120 8 0 13 -20 22 -107 50 -29 9 -60 26 -68 38 -20 28 -19
87 1 116 35 50 140 67 204 33z m268 12 c22 -6 22 -8 22 -180 l0 -174 -45 0
-45 0 0 174 c0 193 2 197 68 180z m425 -8 c108 -45 148 -189 76 -280 -77 -97
-249 -84 -306 24 -48 90 -18 202 67 247 49 26 114 30 163 9z m402 -81 c43 -52
82 -95 87 -95 4 0 8 43 8 95 l0 95 33 0 c17 0 37 -4 42 -8 6 -4 9 -72 7 -179
l-4 -173 -27 0 c-38 0 -58 17 -126 109 -33 44 -63 80 -67 81 -4 0 -9 -42 -10
-92 l-3 -93 -42 -3 -43 -3 0 180 0 181 34 0 c30 0 41 -9 111 -95z m-4085 -90
c0 -13 -35 -15 -261 -14 -144 0 -258 3 -254 7 9 9 164 18 358 20 134 2 157 0
157 -13z m4964 -6 c6 -5 -85 -9 -237 -9 -223 0 -247 2 -247 16 0 15 21 16 238
10 130 -4 241 -12 246 -17z"/>
<path d="M4205 7351 c-45 -11 -68 -26 -107 -69 -95 -105 -104 -292 -19 -409
38 -52 88 -82 148 -89 40 -5 57 -1 102 23 156 82 193 315 75 470 -43 57 -133
91 -199 74z"/>
<path d="M3363 4564 c0 -17 2 -22 7 -13 5 6 6 18 3 26 -8 19 -10 16 -10 -13z"/>
<path d="M3390 4558 c0 -19 2 -20 10 -8 13 19 13 30 0 30 -5 0 -10 -10 -10
-22z"/>
<path d="M3284 4389 c-4 -7 -23 -9 -48 -6 -22 3 -35 3 -28 0 10 -4 10 -8 1
-19 -10 -13 -8 -13 15 -4 36 13 59 13 50 -2 -5 -7 -3 -8 5 -4 7 5 10 10 7 14
-3 3 2 11 12 18 9 8 12 14 5 14 -6 0 -15 -5 -19 -11z"/>
<path d="M3225 4340 c-3 -6 1 -7 9 -4 18 7 21 14 7 14 -6 0 -13 -4 -16 -10z"/>
<path d="M6547 3136 c-100 -36 -164 -133 -154 -233 20 -190 256 -264 407 -127
53 48 77 124 61 191 -36 140 -178 217 -314 169z"/>
<path d="M5506 3132 c-3 -3 -6 -32 -6 -64 l0 -58 133 -2 c216 -3 252 3 264 50
7 30 -5 52 -38 70 -24 12 -341 17 -353 4z"/>
<path d="M5502 2783 l3 -68 180 3 c201 4 225 11 225 62 0 19 -9 35 -26 49 -25
19 -40 21 -206 21 l-179 0 3 -67z"/>
<path d="M3920 2200 l0 -50 55 0 c49 0 57 3 67 25 9 19 8 29 -6 50 -14 21 -24
25 -66 25 l-50 0 0 -50z"/>
<path d="M4413 2180 l-22 -60 50 0 49 0 -20 52 c-11 28 -23 55 -27 59 -5 5
-18 -19 -30 -51z"/>
<path d="M6320 2239 c-75 -30 -80 -131 -9 -173 72 -43 159 38 125 117 -22 54
-67 76 -116 56z"/>
</g>
</svg>
